<mxfile host="65bd71144e">
    <diagram id="2l1VTJv8-1Y_rKdLkJjB" name="Page-1">
        <mxGraphModel dx="2276" dy="1604" grid="1" gridSize="10" guides="1" tooltips="1" connect="1" arrows="1" fold="1" page="1" pageScale="1" pageWidth="850" pageHeight="1100" math="0" shadow="0">
            <root>
                <mxCell id="0"/>
                <mxCell id="1" parent="0"/>
                <mxCell id="4" value="" style="line;strokeWidth=1;direction=south;html=1;dashed=1;dashPattern=20 20;fillColor=#b1ddf0;strokeColor=#10739e;" vertex="1" parent="1">
                    <mxGeometry x="270" y="40" width="10" height="380" as="geometry"/>
                </mxCell>
                <mxCell id="5" value="Model" style="text;align=center;fontSize=16;fontStyle=1;spacing=-1;" vertex="1" parent="1">
                    <mxGeometry x="110" y="20" width="60" height="20" as="geometry"/>
                </mxCell>
                <mxCell id="6" value="View" style="text;align=center;fontSize=16;fontStyle=1;spacing=-1;" vertex="1" parent="1">
                    <mxGeometry x="380" y="20" width="60" height="20" as="geometry"/>
                </mxCell>
                <mxCell id="7" value="" style="line;strokeWidth=1;direction=south;html=1;dashed=1;dashPattern=20 20;fillColor=#b1ddf0;strokeColor=#10739e;" vertex="1" parent="1">
                    <mxGeometry x="550" y="40" width="10" height="420" as="geometry"/>
                </mxCell>
                <mxCell id="8" value="Controller" style="text;align=center;fontSize=16;fontStyle=1;spacing=-1;" vertex="1" parent="1">
                    <mxGeometry x="670" y="20" width="60" height="20" as="geometry"/>
                </mxCell>
                <mxCell id="16" style="edgeStyle=none;html=1;entryX=0.5;entryY=0;entryDx=0;entryDy=0;exitX=0;exitY=0.5;exitDx=0;exitDy=0;" edge="1" parent="1" source="18" target="11">
                    <mxGeometry relative="1" as="geometry">
                        <mxPoint x="580" y="80" as="sourcePoint"/>
                        <Array as="points">
                            <mxPoint x="140" y="75"/>
                        </Array>
                    </mxGeometry>
                </mxCell>
                <mxCell id="22" value="student" style="edgeLabel;html=1;align=center;verticalAlign=middle;resizable=0;points=[];" vertex="1" connectable="0" parent="16">
                    <mxGeometry x="0.3921" relative="1" as="geometry">
                        <mxPoint as="offset"/>
                    </mxGeometry>
                </mxCell>
                <mxCell id="26" style="edgeStyle=none;html=1;entryX=1;entryY=0.5;entryDx=0;entryDy=0;exitX=0;exitY=0;exitDx=160;exitDy=40;exitPerimeter=0;" edge="1" parent="1" source="9" target="14">
                    <mxGeometry relative="1" as="geometry">
                        <Array as="points">
                            <mxPoint x="620" y="360"/>
                        </Array>
                    </mxGeometry>
                </mxCell>
                <mxCell id="27" style="edgeStyle=none;html=1;entryX=0.5;entryY=0;entryDx=0;entryDy=0;" edge="1" parent="1" source="9" target="15">
                    <mxGeometry relative="1" as="geometry"/>
                </mxCell>
                <mxCell id="9" value="Prefect Btn clicked" style="html=1;shape=mxgraph.infographic.ribbonSimple;notch1=20;notch2=0;align=center;verticalAlign=middle;fontSize=14;fontStyle=0;flipH=1;" vertex="1" parent="1">
                    <mxGeometry x="620" y="70" width="160" height="40" as="geometry"/>
                </mxCell>
                <mxCell id="29" style="edgeStyle=none;html=1;entryX=0.5;entryY=0;entryDx=0;entryDy=0;exitX=0;exitY=0.5;exitDx=0;exitDy=0;" edge="1" parent="1" source="11" target="28">
                    <mxGeometry relative="1" as="geometry">
                        <Array as="points">
                            <mxPoint x="25" y="160"/>
                            <mxPoint x="25" y="300"/>
                            <mxPoint x="135" y="300"/>
                        </Array>
                    </mxGeometry>
                </mxCell>
                <mxCell id="11" value="MakePrefect" style="html=1;align=center;verticalAlign=top;rounded=1;absoluteArcSize=1;arcSize=10;dashed=0;" vertex="1" parent="1">
                    <mxGeometry x="70" y="140" width="140" height="40" as="geometry"/>
                </mxCell>
                <mxCell id="12" value="FilterStudents" style="html=1;align=center;verticalAlign=top;rounded=1;absoluteArcSize=1;arcSize=10;dashed=0;" vertex="1" parent="1">
                    <mxGeometry x="70" y="220" width="140" height="40" as="geometry"/>
                </mxCell>
                <mxCell id="13" value="ShowStudents" style="html=1;align=center;verticalAlign=top;rounded=1;absoluteArcSize=1;arcSize=10;dashed=0;" vertex="1" parent="1">
                    <mxGeometry x="330" y="270" width="140" height="40" as="geometry"/>
                </mxCell>
                <mxCell id="14" value="ShowInfo" style="html=1;align=center;verticalAlign=top;rounded=1;absoluteArcSize=1;arcSize=10;dashed=0;" vertex="1" parent="1">
                    <mxGeometry x="330" y="340" width="140" height="40" as="geometry"/>
                </mxCell>
                <mxCell id="15" value="PopupEvent" style="html=1;align=center;verticalAlign=top;rounded=1;absoluteArcSize=1;arcSize=10;dashed=0;" vertex="1" parent="1">
                    <mxGeometry x="630" y="400" width="140" height="40" as="geometry"/>
                </mxCell>
                <mxCell id="17" style="edgeStyle=none;html=1;entryX=0.5;entryY=0;entryDx=0;entryDy=0;exitX=1;exitY=0.5;exitDx=0;exitDy=0;exitPerimeter=0;startArrow=none;" edge="1" parent="1" source="9" target="12">
                    <mxGeometry relative="1" as="geometry">
                        <mxPoint x="630" y="99.99999999999994" as="sourcePoint"/>
                        <mxPoint x="150" y="150" as="targetPoint"/>
                        <Array as="points">
                            <mxPoint x="310" y="90"/>
                            <mxPoint x="310" y="200"/>
                            <mxPoint x="140" y="200"/>
                        </Array>
                    </mxGeometry>
                </mxCell>
                <mxCell id="18" value="" style="fillColor=#ffffff;strokeColor=#000000;" vertex="1" parent="1">
                    <mxGeometry x="610" y="70" width="10" height="10" as="geometry"/>
                </mxCell>
                <mxCell id="24" style="edgeStyle=none;html=1;entryX=0.5;entryY=0;entryDx=0;entryDy=0;" edge="1" parent="1" source="23" target="13">
                    <mxGeometry relative="1" as="geometry">
                        <Array as="points">
                            <mxPoint x="400" y="105"/>
                        </Array>
                    </mxGeometry>
                </mxCell>
                <mxCell id="25" value="studentsInDisplay" style="edgeLabel;html=1;align=center;verticalAlign=middle;resizable=0;points=[];" vertex="1" connectable="0" parent="24">
                    <mxGeometry x="0.6467" y="-1" relative="1" as="geometry">
                        <mxPoint as="offset"/>
                    </mxGeometry>
                </mxCell>
                <mxCell id="23" value="" style="fillColor=#ffffff;strokeColor=#000000;" vertex="1" parent="1">
                    <mxGeometry x="610" y="100" width="10" height="10" as="geometry"/>
                </mxCell>
                <mxCell id="28" value="" style="whiteSpace=wrap;html=1;dashed=1;fillColor=none;pointerEvents=0;allowArrows=0;rounded=1;fontStyle=1" vertex="1" parent="1">
                    <mxGeometry x="10" y="470" width="830" height="620" as="geometry"/>
                </mxCell>
                <mxCell id="30" value="Make Prefect" style="text;html=1;align=center;verticalAlign=middle;resizable=0;points=[];autosize=1;strokeColor=none;fillColor=none;" vertex="1" parent="1">
                    <mxGeometry x="100" y="480" width="90" height="20" as="geometry"/>
                </mxCell>
                <mxCell id="34" value="Define Max Amount of Students allowed as prefects per house" style="shape=note2;boundedLbl=1;whiteSpace=wrap;html=1;size=25;verticalAlign=top;align=left;rounded=1;pointerEvents=0;fillColor=none;perimeterSpacing=0;labelBackgroundColor=none;" vertex="1" parent="1">
                    <mxGeometry x="40" y="510" width="210" height="60" as="geometry"/>
                </mxCell>
                <mxCell id="35" value="Define Max Amount of Students allowed as prefects per gender" style="shape=note2;boundedLbl=1;whiteSpace=wrap;html=1;size=25;verticalAlign=top;align=left;rounded=1;pointerEvents=0;fillColor=none;perimeterSpacing=0;labelBackgroundColor=none;" vertex="1" parent="1">
                    <mxGeometry x="40" y="590" width="210" height="60" as="geometry"/>
                </mxCell>
                <mxCell id="55" style="edgeStyle=none;html=1;entryX=0.5;entryY=0;entryDx=0;entryDy=0;exitX=0.62;exitY=1.006;exitDx=0;exitDy=0;exitPerimeter=0;" edge="1" parent="1" source="36" target="37">
                    <mxGeometry relative="1" as="geometry"/>
                </mxCell>
                <mxCell id="36" value="Define a counter for the amount of prefects in the student's house, and amount of prefects from each gender" style="shape=note2;boundedLbl=1;whiteSpace=wrap;html=1;size=25;verticalAlign=top;align=left;rounded=1;pointerEvents=0;fillColor=none;perimeterSpacing=0;labelBackgroundColor=none;" vertex="1" parent="1">
                    <mxGeometry x="40" y="670" width="210" height="80" as="geometry"/>
                </mxCell>
                <mxCell id="72" style="edgeStyle=none;html=1;entryX=0.5;entryY=0;entryDx=0;entryDy=0;exitX=0.834;exitY=0.001;exitDx=0;exitDy=0;exitPerimeter=0;" edge="1" parent="1" source="37" target="56">
                    <mxGeometry relative="1" as="geometry">
                        <Array as="points">
                            <mxPoint x="290" y="720"/>
                            <mxPoint x="580" y="720"/>
                        </Array>
                    </mxGeometry>
                </mxCell>
                <mxCell id="37" value="" style="whiteSpace=wrap;html=1;dashed=1;fillColor=none;pointerEvents=0;allowArrows=1;rounded=1;fontStyle=1" vertex="1" parent="1">
                    <mxGeometry x="40" y="800" width="300" height="260" as="geometry"/>
                </mxCell>
                <mxCell id="42" style="edgeStyle=none;html=1;entryX=1;entryY=0.5;entryDx=0;entryDy=0;" edge="1" parent="1" source="38" target="41">
                    <mxGeometry relative="1" as="geometry"/>
                </mxCell>
                <mxCell id="43" value="false" style="edgeLabel;html=1;align=center;verticalAlign=middle;resizable=0;points=[];" vertex="1" connectable="0" parent="42">
                    <mxGeometry x="-0.1722" relative="1" as="geometry">
                        <mxPoint as="offset"/>
                    </mxGeometry>
                </mxCell>
                <mxCell id="45" style="edgeStyle=none;html=1;entryX=0.5;entryY=0;entryDx=0;entryDy=0;" edge="1" parent="1" source="38" target="44">
                    <mxGeometry relative="1" as="geometry"/>
                </mxCell>
                <mxCell id="46" value="true" style="edgeLabel;html=1;align=center;verticalAlign=middle;resizable=0;points=[];" vertex="1" connectable="0" parent="45">
                    <mxGeometry x="-0.3713" y="-1" relative="1" as="geometry">
                        <mxPoint as="offset"/>
                    </mxGeometry>
                </mxCell>
                <mxCell id="38" value="" style="rhombus;rounded=0;pointerEvents=0;fillColor=none;strokeColor=default;labelBackgroundColor=none;" vertex="1" parent="1">
                    <mxGeometry x="130" y="840" width="30" height="30" as="geometry"/>
                </mxCell>
                <mxCell id="39" value="Counting prefects by house" style="text;html=1;align=center;verticalAlign=middle;resizable=0;points=[];autosize=1;strokeColor=none;fillColor=none;" vertex="1" parent="1">
                    <mxGeometry x="85" y="810" width="160" height="20" as="geometry"/>
                </mxCell>
                <mxCell id="40" value="if student.house in students &lt;br&gt;is equal current student.house" style="text;html=1;align=left;verticalAlign=middle;resizable=0;points=[];autosize=1;strokeColor=none;fillColor=none;" vertex="1" parent="1">
                    <mxGeometry x="160" y="840" width="180" height="30" as="geometry"/>
                </mxCell>
                <mxCell id="41" value="" style="shape=sumEllipse;perimeter=ellipsePerimeter;whiteSpace=wrap;html=1;backgroundOutline=1;rounded=0;pointerEvents=0;strokeColor=default;fillColor=none;" vertex="1" parent="1">
                    <mxGeometry x="60" y="840" width="30" height="30" as="geometry"/>
                </mxCell>
                <mxCell id="49" value="false" style="edgeStyle=none;html=1;entryX=1;entryY=0.5;entryDx=0;entryDy=0;" edge="1" parent="1" source="44" target="48">
                    <mxGeometry relative="1" as="geometry">
                        <mxPoint as="offset"/>
                    </mxGeometry>
                </mxCell>
                <mxCell id="54" value="true" style="edgeStyle=none;html=1;entryX=0.5;entryY=0;entryDx=0;entryDy=0;" edge="1" parent="1" source="44" target="52">
                    <mxGeometry relative="1" as="geometry"/>
                </mxCell>
                <mxCell id="44" value="" style="rhombus;rounded=0;pointerEvents=0;strokeColor=default;fillColor=none;labelBackgroundColor=none;" vertex="1" parent="1">
                    <mxGeometry x="130" y="910" width="30" height="30" as="geometry"/>
                </mxCell>
                <mxCell id="47" value="if student in students &lt;br&gt;is prefect" style="text;html=1;align=left;verticalAlign=middle;resizable=0;points=[];autosize=1;strokeColor=none;fillColor=none;" vertex="1" parent="1">
                    <mxGeometry x="160" y="910" width="130" height="30" as="geometry"/>
                </mxCell>
                <mxCell id="48" value="" style="shape=sumEllipse;perimeter=ellipsePerimeter;whiteSpace=wrap;html=1;backgroundOutline=1;rounded=0;pointerEvents=0;strokeColor=default;fillColor=none;" vertex="1" parent="1">
                    <mxGeometry x="60" y="910" width="30" height="30" as="geometry"/>
                </mxCell>
                <mxCell id="52" value="prefects++&lt;br&gt;house++" style="html=1;dashed=0;rounded=1;absoluteArcSize=1;arcSize=20;verticalAlign=middle;align=left;labelBackgroundColor=none;pointerEvents=0;strokeColor=default;fillColor=none;" vertex="1" parent="1">
                    <mxGeometry x="92.5" y="980" width="105" height="60" as="geometry"/>
                </mxCell>
                <mxCell id="53" value="*" style="text;resizeWidth=0;resizeHeight=0;points=[];part=1;verticalAlign=middle;align=center;rounded=0;labelBackgroundColor=none;pointerEvents=0;strokeColor=default;fillColor=none;" vertex="1" parent="52">
                    <mxGeometry x="1" y="0.5" width="20" height="20" relative="1" as="geometry">
                        <mxPoint x="-20" y="-10" as="offset"/>
                    </mxGeometry>
                </mxCell>
                <mxCell id="80" style="edgeStyle=none;html=1;exitX=1;exitY=1;exitDx=0;exitDy=0;entryX=0.994;entryY=0.4;entryDx=0;entryDy=0;entryPerimeter=0;" edge="1" parent="1" source="56">
                    <mxGeometry relative="1" as="geometry">
                        <mxPoint x="800.02" y="1058.75" as="targetPoint"/>
                    </mxGeometry>
                </mxCell>
                <mxCell id="56" value="" style="whiteSpace=wrap;html=1;dashed=1;fillColor=none;pointerEvents=0;allowArrows=0;rounded=1;fontStyle=1" vertex="1" parent="1">
                    <mxGeometry x="360" y="748.75" width="440" height="310" as="geometry"/>
                </mxCell>
                <mxCell id="57" style="edgeStyle=none;html=1;entryX=1;entryY=0.5;entryDx=0;entryDy=0;" edge="1" source="61" parent="1">
                    <mxGeometry relative="1" as="geometry">
                        <mxPoint x="540" y="803.75" as="targetPoint"/>
                    </mxGeometry>
                </mxCell>
                <mxCell id="58" value="false" style="edgeLabel;html=1;align=center;verticalAlign=middle;resizable=0;points=[];" vertex="1" connectable="0" parent="57">
                    <mxGeometry x="-0.1722" relative="1" as="geometry">
                        <mxPoint as="offset"/>
                    </mxGeometry>
                </mxCell>
                <mxCell id="59" style="edgeStyle=none;html=1;entryX=0.5;entryY=0;entryDx=0;entryDy=0;" edge="1" source="61" target="64" parent="1">
                    <mxGeometry relative="1" as="geometry"/>
                </mxCell>
                <mxCell id="60" value="true" style="edgeLabel;html=1;align=center;verticalAlign=middle;resizable=0;points=[];" vertex="1" connectable="0" parent="59">
                    <mxGeometry x="-0.3713" y="-1" relative="1" as="geometry">
                        <mxPoint as="offset"/>
                    </mxGeometry>
                </mxCell>
                <mxCell id="61" value="" style="rhombus;rounded=0;pointerEvents=0;fillColor=none;strokeColor=default;labelBackgroundColor=none;" vertex="1" parent="1">
                    <mxGeometry x="580" y="788.75" width="30" height="30" as="geometry"/>
                </mxCell>
                <mxCell id="62" value="false" style="edgeStyle=none;html=1;entryX=1;entryY=0.5;entryDx=0;entryDy=0;" edge="1" source="64" parent="1">
                    <mxGeometry relative="1" as="geometry">
                        <mxPoint x="540" y="873.75" as="targetPoint"/>
                        <mxPoint as="offset"/>
                    </mxGeometry>
                </mxCell>
                <mxCell id="63" value="true" style="edgeStyle=none;html=1;entryX=0.5;entryY=0;entryDx=0;entryDy=0;" edge="1" source="64" parent="1">
                    <mxGeometry relative="1" as="geometry">
                        <mxPoint x="595" y="928.75" as="targetPoint"/>
                    </mxGeometry>
                </mxCell>
                <mxCell id="64" value="" style="rhombus;rounded=0;pointerEvents=0;strokeColor=default;fillColor=none;labelBackgroundColor=none;" vertex="1" parent="1">
                    <mxGeometry x="580" y="858.75" width="30" height="30" as="geometry"/>
                </mxCell>
                <mxCell id="65" value="prefect counter is less than 2" style="text;html=1;align=left;verticalAlign=middle;resizable=0;points=[];autosize=1;strokeColor=none;fillColor=none;" vertex="1" parent="1">
                    <mxGeometry x="610" y="863.75" width="170" height="20" as="geometry"/>
                </mxCell>
                <mxCell id="70" value="student is a prefect" style="text;html=1;align=left;verticalAlign=middle;resizable=0;points=[];autosize=1;strokeColor=none;fillColor=none;" vertex="1" parent="1">
                    <mxGeometry x="610" y="793.75" width="120" height="20" as="geometry"/>
                </mxCell>
                <mxCell id="71" value="Counting prefects by gender" style="text;html=1;align=center;verticalAlign=middle;resizable=0;points=[];autosize=1;strokeColor=none;fillColor=none;" vertex="1" parent="1">
                    <mxGeometry x="470" y="758.75" width="170" height="20" as="geometry"/>
                </mxCell>
                <mxCell id="73" value="student.isPrefect = false" style="html=1;align=center;verticalAlign=top;rounded=1;absoluteArcSize=1;arcSize=10;dashed=0;labelBackgroundColor=none;pointerEvents=0;strokeColor=default;fillColor=none;" vertex="1" parent="1">
                    <mxGeometry x="390" y="788.75" width="150" height="40" as="geometry"/>
                </mxCell>
                <mxCell id="74" value="Alert(Max per house reached)" style="html=1;align=center;verticalAlign=top;rounded=1;absoluteArcSize=1;arcSize=10;dashed=0;labelBackgroundColor=none;pointerEvents=0;strokeColor=default;fillColor=none;" vertex="1" parent="1">
                    <mxGeometry x="370" y="853.75" width="170" height="40" as="geometry"/>
                </mxCell>
                <mxCell id="77" value="false" style="edgeStyle=none;html=1;entryX=1;entryY=0.5;entryDx=0;entryDy=0;" edge="1" parent="1" source="75" target="76">
                    <mxGeometry relative="1" as="geometry"/>
                </mxCell>
                <mxCell id="79" style="edgeStyle=none;html=1;entryX=0.5;entryY=0;entryDx=0;entryDy=0;" edge="1" parent="1" source="75" target="78">
                    <mxGeometry relative="1" as="geometry"/>
                </mxCell>
                <mxCell id="75" value="" style="rhombus;rounded=0;labelBackgroundColor=none;pointerEvents=0;strokeColor=default;fillColor=none;" vertex="1" parent="1">
                    <mxGeometry x="580" y="928.75" width="30" height="30" as="geometry"/>
                </mxCell>
                <mxCell id="76" value="Alert(Max per gender reached)" style="html=1;align=center;verticalAlign=top;rounded=1;absoluteArcSize=1;arcSize=10;dashed=0;labelBackgroundColor=none;pointerEvents=0;strokeColor=default;fillColor=none;" vertex="1" parent="1">
                    <mxGeometry x="370" y="923.75" width="170" height="40" as="geometry"/>
                </mxCell>
                <mxCell id="78" value="student.isPrefect = true" style="html=1;align=center;verticalAlign=top;rounded=1;absoluteArcSize=1;arcSize=10;dashed=0;labelBackgroundColor=none;pointerEvents=0;strokeColor=default;fillColor=none;" vertex="1" parent="1">
                    <mxGeometry x="510" y="998.75" width="170" height="40" as="geometry"/>
                </mxCell>
            </root>
        </mxGraphModel>
    </diagram>
</mxfile>